<svg xmlns="http://www.w3.org/2000/svg" viewBox="0 0 400 400">
  <rect width="400" height="400" fill="#0e1622"/>
  <g stroke="#3aa9e0" stroke-width="1" opacity="0.25">
    <path d="M0 50H400M0 100H400M0 150H400M0 200H400M0 250H400M0 300H400M0 350H400" />
    <path d="M50 0V400M100 0V400M150 0V400M200 0V400M250 0V400M300 0V400M350 0V400" />
  </g>
  <g transform="translate(200,200)" fill="none" stroke="#5fd0ff" stroke-width="4">
    <circle r="150"/>
    <circle r="90"/>
    <circle r="34" fill="#0e1622"/>
    <g fill="#5fd0ff" stroke="none">
      <circle cx="0" cy="-120" r="12"/>
      <circle cx="60" cy="-104" r="12"/>
      <circle cx="104" cy="-60" r="12"/>
      <circle cx="120" cy="0" r="12"/>
      <circle cx="104" cy="60" r="12"/>
      <circle cx="60" cy="104" r="12"/>
      <circle cx="0" cy="120" r="12"/>
      <circle cx="-60" cy="104" r="12"/>
      <circle cx="-104" cy="60" r="12"/>
      <circle cx="-120" cy="0" r="12"/>
      <circle cx="-104" cy="-60" r="12"/>
      <circle cx="-60" cy="-104" r="12"/>
    </g>
  </g>
</svg>
